ffmpeg started on 2026-01-05 at 13:32:33
Report written to "D:\Convert\FFMetrics\reports\ssim_report-6.txt"
Log level: 32
Command line:
ffmpeg -hide_banner -nostdin -r 24000/1001 -i "F:\\Convert\\files\\JamClub_Ore_dake_Level_Up_na_Ken_Season_2_13_1080p_HEVC(56).mkv" -r 24000/1001 -i "F:\\Convert\\files\\JamClub_Ore_dake_Level_Up_na_Ken_Season_2_13_1080p.mp4" -lavfi "[0:v]settb=AVTB,setpts=PTS-STARTPTS,format=pix_fmts=yuv420p10le,fps=24000/1001,scale=1920:1080:flags=bicubic[main];[1:v]settb=AVTB,setpts=PTS-STARTPTS,format=pix_fmts=yuv420p,fps=24000/1001,scale=1920:1080:flags=bicubic[ref];[main][ref]ssim=eof_action=endall:stats_file='D\\:/Convert/FFMetrics/logs/ssim_logfile-6.txt'" -f null -
Input #0, matroska,webm, from 'F:\Convert\files\JamClub_Ore_dake_Level_Up_na_Ken_Season_2_13_1080p_HEVC(56).mkv':
  Metadata:
    COMPATIBLE_BRANDS: isomiso2avc1mp41
    MAJOR_BRAND     : isom
    MINOR_VERSION   : 512
    ENCODER         : Lavf61.7.100
  Duration: 00:24:02.33, start: -0.001000, bitrate: 1905 kb/s
  Stream #0:0: Video: hevc (Main 10), yuv420p10le(tv, bt709, progressive), 1920x1080 [SAR 1:1 DAR 16:9], 23.98 fps, 23.98 tbr, 1k tbn (default)
      Metadata:
        HANDLER_NAME    : VideoHandler
        VENDOR_ID       : [0][0][0][0]
        ENCODER         : Lavc61.19.100 libx265
        BPS             : 1706786
        DURATION        : 00:24:02.190708333
        NUMBER_OF_FRAMES: 34578
        NUMBER_OF_BYTES : 307688722
        _STATISTICS_WRITING_APP: mkvpropedit v94.0 ('Initiate') 64-bit
        _STATISTICS_WRITING_DATE_UTC: 2026-01-04 16:00:23
        _STATISTICS_TAGS: BPS DURATION NUMBER_OF_FRAMES NUMBER_OF_BYTES
  Stream #0:1(eng): Audio: aac (LC), 48000 Hz, stereo, fltp (default)
      Metadata:
        HANDLER_NAME    : SoundHandler
        VENDOR_ID       : [0][0][0][0]
        ENCODER         : Lavc61.19.100 aac
        BPS             : 194704
        DURATION        : 00:24:02.285000000
        NUMBER_OF_FRAMES: 67608
        NUMBER_OF_BYTES : 35102363
        _STATISTICS_WRITING_APP: mkvpropedit v94.0 ('Initiate') 64-bit
        _STATISTICS_WRITING_DATE_UTC: 2026-01-04 16:00:23
        _STATISTICS_TAGS: BPS DURATION NUMBER_OF_FRAMES NUMBER_OF_BYTES
Input #1, mov,mp4,m4a,3gp,3g2,mj2, from 'F:\Convert\files\JamClub_Ore_dake_Level_Up_na_Ken_Season_2_13_1080p.mp4':
  Metadata:
    major_brand     : isom
    minor_version   : 512
    compatible_brands: isomiso2avc1mp41
    encoder         : Lavf60.16.100
  Duration: 00:24:02.31, start: 0.000000, bitrate: 5143 kb/s
  Stream #1:0[0x1](und): Video: h264 (High) (avc1 / 0x31637661), yuv420p(progressive), 1920x1080 [SAR 1:1 DAR 16:9], 4945 kb/s, 23.98 fps, 23.98 tbr, 90k tbn (default)
      Metadata:
        handler_name    : VideoHandler
        vendor_id       : [0][0][0][0]
  Stream #1:1[0x2](eng): Audio: aac (LC) (mp4a / 0x6134706D), 48000 Hz, stereo, fltp, 191 kb/s (default)
      Metadata:
        handler_name    : SoundHandler
        vendor_id       : [0][0][0][0]
Stream mapping:
  Stream #0:0 (hevc) -> settb:default
  Stream #1:0 (h264) -> settb:default
  ssim:default -> Stream #0:0 (wrapped_avframe)
  Stream #0:1 -> #0:1 (aac (native) -> pcm_s16le (native))
Output #0, null, to 'pipe:':
  Metadata:
    COMPATIBLE_BRANDS: isomiso2avc1mp41
    MAJOR_BRAND     : isom
    MINOR_VERSION   : 512
    encoder         : Lavf61.7.100
  Stream #0:0: Video: wrapped_avframe, yuv420p10le(tv, bt709, progressive), 1920x1080 [SAR 1:1 DAR 16:9], q=2-31, 200 kb/s, 23.98 fps, 23.98 tbn
      Metadata:
        encoder         : Lavc61.19.100 wrapped_avframe
  Stream #0:1(eng): Audio: pcm_s16le, 48000 Hz, stereo, s16, 1536 kb/s (default)
      Metadata:
        HANDLER_NAME    : SoundHandler
        VENDOR_ID       : [0][0][0][0]
        _STATISTICS_TAGS: BPS DURATION NUMBER_OF_FRAMES NUMBER_OF_BYTES
        BPS             : 194704
        DURATION        : 00:24:02.285000000
        NUMBER_OF_FRAMES: 67608
        NUMBER_OF_BYTES : 35102363
        _STATISTICS_WRITING_APP: mkvpropedit v94.0 ('Initiate') 64-bit
        _STATISTICS_WRITING_DATE_UTC: 2026-01-04 16:00:23
        encoder         : Lavc61.19.100 pcm_s16le
frame=  102 fps=0.0 q=-0.0 size=N/A time=00:00:04.25 bitrate=N/A speed=8.37x    frame=  255 fps=247 q=-0.0 size=N/A time=00:00:10.63 bitrate=N/A speed=10.3x    frame=  436 fps=283 q=-0.0 size=N/A time=00:00:18.18 bitrate=N/A speed=11.8x    frame=  670 fps=325 q=-0.0 size=N/A time=00:00:27.94 bitrate=N/A speed=13.6x    frame=  904 fps=352 q=-0.0 size=N/A time=00:00:37.70 bitrate=N/A speed=14.7x    frame= 1141 fps=369 q=-0.0 size=N/A time=00:00:47.58 bitrate=N/A speed=15.4x    frame= 1360 fps=377 q=-0.0 size=N/A time=00:00:56.72 bitrate=N/A speed=15.7x    frame= 1610 fps=391 q=-0.0 size=N/A time=00:01:07.15 bitrate=N/A speed=16.3x    frame= 1819 fps=392 q=-0.0 size=N/A time=00:01:15.86 bitrate=N/A speed=16.4x    frame= 2025 fps=393 q=-0.0 size=N/A time=00:01:24.45 bitrate=N/A speed=16.4x    frame= 2225 fps=393 q=-0.0 size=N/A time=00:01:32.80 bitrate=N/A speed=16.4x    frame= 2418 fps=391 q=-0.0 size=N/A time=00:01:40.85 bitrate=N/A speed=16.3x    frame= 2625 fps=392 q=-0.0 size=N/A time=00:01:49.48 bitrate=N/A speed=16.3x    frame= 2802 fps=388 q=-0.0 size=N/A time=00:01:56.86 bitrate=N/A speed=16.2x    frame= 2960 fps=382 q=-0.0 size=N/A time=00:02:03.45 bitrate=N/A speed=  16x    frame= 3123 fps=378 q=-0.0 size=N/A time=00:02:10.25 bitrate=N/A speed=15.8x    frame= 3336 fps=380 q=-0.0 size=N/A time=00:02:19.13 bitrate=N/A speed=15.9x    frame= 3484 fps=375 q=-0.0 size=N/A time=00:02:25.31 bitrate=N/A speed=15.6x    frame= 3657 fps=373 q=-0.0 size=N/A time=00:02:32.52 bitrate=N/A speed=15.6x    frame= 3808 fps=369 q=-0.0 size=N/A time=00:02:38.82 bitrate=N/A speed=15.4x    frame= 3989 fps=368 q=-0.0 size=N/A time=00:02:46.37 bitrate=N/A speed=15.4x    frame= 4227 fps=372 q=-0.0 size=N/A time=00:02:56.30 bitrate=N/A speed=15.5x    frame= 4495 fps=379 q=-0.0 size=N/A time=00:03:07.47 bitrate=N/A speed=15.8x    frame= 4755 fps=384 q=-0.0 size=N/A time=00:03:18.32 bitrate=N/A speed=  16x    frame= 4985 fps=386 q=-0.0 size=N/A time=00:03:27.91 bitrate=N/A speed=16.1x    frame= 5220 fps=389 q=-0.0 size=N/A time=00:03:37.71 bitrate=N/A speed=16.2x    frame= 5432 fps=390 q=-0.0 size=N/A time=00:03:46.55 bitrate=N/A speed=16.3x    frame= 5606 fps=388 q=-0.0 size=N/A time=00:03:53.81 bitrate=N/A speed=16.2x    frame= 5817 fps=389 q=-0.0 size=N/A time=00:04:02.61 bitrate=N/A speed=16.2x    frame= 6059 fps=392 q=-0.0 size=N/A time=00:04:12.71 bitrate=N/A speed=16.3x    frame= 6302 fps=394 q=-0.0 size=N/A time=00:04:22.84 bitrate=N/A speed=16.4x    frame= 6561 fps=397 q=-0.0 size=N/A time=00:04:33.64 bitrate=N/A speed=16.6x    frame= 6813 fps=400 q=-0.0 size=N/A time=00:04:44.15 bitrate=N/A speed=16.7x    frame= 7057 fps=402 q=-0.0 size=N/A time=00:04:54.33 bitrate=N/A speed=16.8x    frame= 7283 fps=403 q=-0.0 size=N/A time=00:05:03.76 bitrate=N/A speed=16.8x    frame= 7513 fps=405 q=-0.0 size=N/A time=00:05:13.35 bitrate=N/A speed=16.9x    frame= 7746 fps=406 q=-0.0 size=N/A time=00:05:23.07 bitrate=N/A speed=16.9x    frame= 8004 fps=408 q=-0.0 size=N/A time=00:05:33.83 bitrate=N/A speed=  17x    frame= 8247 fps=410 q=-0.0 size=N/A time=00:05:43.96 bitrate=N/A speed=17.1x    frame= 8518 fps=413 q=-0.0 size=N/A time=00:05:55.27 bitrate=N/A speed=17.2x    frame= 8804 fps=416 q=-0.0 size=N/A time=00:06:07.20 bitrate=N/A speed=17.4x    frame= 9048 fps=417 q=-0.0 size=N/A time=00:06:17.37 bitrate=N/A speed=17.4x    frame= 9264 fps=418 q=-0.0 size=N/A time=00:06:26.38 bitrate=N/A speed=17.4x    frame= 9485 fps=418 q=-0.0 size=N/A time=00:06:35.60 bitrate=N/A speed=17.4x    frame= 9737 fps=419 q=-0.0 size=N/A time=00:06:46.11 bitrate=N/A speed=17.5x    frame= 9966 fps=420 q=-0.0 size=N/A time=00:06:55.66 bitrate=N/A speed=17.5x    frame=10217 fps=421 q=-0.0 size=N/A time=00:07:06.13 bitrate=N/A speed=17.6x    frame=10464 fps=423 q=-0.0 size=N/A time=00:07:16.43 bitrate=N/A speed=17.6x    frame=10721 fps=424 q=-0.0 size=N/A time=00:07:27.15 bitrate=N/A speed=17.7x    frame=10937 fps=424 q=-0.0 size=N/A time=00:07:36.16 bitrate=N/A speed=17.7x    frame=11131 fps=423 q=-0.0 size=N/A time=00:07:44.25 bitrate=N/A speed=17.7x    frame=11332 fps=422 q=-0.0 size=N/A time=00:07:52.63 bitrate=N/A speed=17.6x    frame=11568 fps=423 q=-0.0 size=N/A time=00:08:02.48 bitrate=N/A speed=17.6x    frame=11749 fps=422 q=-0.0 size=N/A time=00:08:10.03 bitrate=N/A speed=17.6x    frame=11943 fps=421 q=-0.0 size=N/A time=00:08:18.12 bitrate=N/A speed=17.6x    frame=12179 fps=422 q=-0.0 size=N/A time=00:08:27.96 bitrate=N/A speed=17.6x    frame=12415 fps=422 q=-0.0 size=N/A time=00:08:37.80 bitrate=N/A speed=17.6x    frame=12636 fps=422 q=-0.0 size=N/A time=00:08:47.02 bitrate=N/A speed=17.6x    frame=12853 fps=422 q=-0.0 size=N/A time=00:08:56.07 bitrate=N/A speed=17.6x    frame=13050 fps=422 q=-0.0 size=N/A time=00:09:04.29 bitrate=N/A speed=17.6x    frame=13242 fps=421 q=-0.0 size=N/A time=00:09:12.30 bitrate=N/A speed=17.6x    frame=13442 fps=420 q=-0.0 size=N/A time=00:09:20.64 bitrate=N/A speed=17.5x    frame=13677 fps=421 q=-0.0 size=N/A time=00:09:30.44 bitrate=N/A speed=17.6x    frame=13923 fps=422 q=-0.0 size=N/A time=00:09:40.70 bitrate=N/A speed=17.6x    frame=14139 fps=422 q=-0.0 size=N/A time=00:09:49.71 bitrate=N/A speed=17.6x    frame=14397 fps=423 q=-0.0 size=N/A time=00:10:00.47 bitrate=N/A speed=17.6x    frame=14626 fps=423 q=-0.0 size=N/A time=00:10:10.02 bitrate=N/A speed=17.6x    frame=14872 fps=424 q=-0.0 size=N/A time=00:10:20.28 bitrate=N/A speed=17.7x    frame=15079 fps=424 q=-0.0 size=N/A time=00:10:28.91 bitrate=N/A speed=17.7x    frame=15294 fps=424 q=-0.0 size=N/A time=00:10:37.88 bitrate=N/A speed=17.7x    frame=15542 fps=424 q=-0.0 size=N/A time=00:10:48.23 bitrate=N/A speed=17.7x    frame=15745 fps=424 q=-0.0 size=N/A time=00:10:56.69 bitrate=N/A speed=17.7x    frame=15963 fps=424 q=-0.0 size=N/A time=00:11:05.79 bitrate=N/A speed=17.7x    frame=16188 fps=424 q=-0.0 size=N/A time=00:11:15.17 bitrate=N/A speed=17.7x    frame=16434 fps=425 q=-0.0 size=N/A time=00:11:25.43 bitrate=N/A speed=17.7x    frame=16656 fps=425 q=-0.0 size=N/A time=00:11:34.69 bitrate=N/A speed=17.7x    frame=16897 fps=425 q=-0.0 size=N/A time=00:11:44.74 bitrate=N/A speed=17.7x    frame=17111 fps=425 q=-0.0 size=N/A time=00:11:53.67 bitrate=N/A speed=17.7x    frame=17310 fps=425 q=-0.0 size=N/A time=00:12:01.97 bitrate=N/A speed=17.7x    frame=17515 fps=425 q=-0.0 size=N/A time=00:12:10.52 bitrate=N/A speed=17.7x    frame=17719 fps=424 q=-0.0 size=N/A time=00:12:19.02 bitrate=N/A speed=17.7x    frame=17938 fps=424 q=-0.0 size=N/A time=00:12:28.16 bitrate=N/A speed=17.7x    frame=18183 fps=425 q=-0.0 size=N/A time=00:12:38.38 bitrate=N/A speed=17.7x    frame=18421 fps=425 q=-0.0 size=N/A time=00:12:48.30 bitrate=N/A speed=17.7x    frame=18679 fps=426 q=-0.0 size=N/A time=00:12:59.06 bitrate=N/A speed=17.8x    frame=18926 fps=427 q=-0.0 size=N/A time=00:13:09.37 bitrate=N/A speed=17.8x    frame=19146 fps=427 q=-0.0 size=N/A time=00:13:18.54 bitrate=N/A speed=17.8x    frame=19381 fps=427 q=-0.0 size=N/A time=00:13:28.34 bitrate=N/A speed=17.8x    frame=19603 fps=427 q=-0.0 size=N/A time=00:13:37.60 bitrate=N/A speed=17.8x    frame=19774 fps=426 q=-0.0 size=N/A time=00:13:44.74 bitrate=N/A speed=17.8x    frame=19964 fps=425 q=-0.0 size=N/A time=00:13:52.66 bitrate=N/A speed=17.7x    frame=20195 fps=426 q=-0.0 size=N/A time=00:14:02.29 bitrate=N/A speed=17.8x    frame=20424 fps=426 q=-0.0 size=N/A time=00:14:11.85 bitrate=N/A speed=17.8x    frame=20620 fps=425 q=-0.0 size=N/A time=00:14:20.02 bitrate=N/A speed=17.7x    frame=20854 fps=426 q=-0.0 size=N/A time=00:14:29.78 bitrate=N/A speed=17.8x    frame=21093 fps=426 q=-0.0 size=N/A time=00:14:39.75 bitrate=N/A speed=17.8x    frame=21341 fps=427 q=-0.0 size=N/A time=00:14:50.09 bitrate=N/A speed=17.8x    frame=21602 fps=427 q=-0.0 size=N/A time=00:15:00.98 bitrate=N/A speed=17.8x    frame=21830 fps=428 q=-0.0 size=N/A time=00:15:10.49 bitrate=N/A speed=17.8x    frame=22066 fps=428 q=-0.0 size=N/A time=00:15:20.33 bitrate=N/A speed=17.8x    frame=22345 fps=429 q=-0.0 size=N/A time=00:15:31.97 bitrate=N/A speed=17.9x    frame=22608 fps=430 q=-0.0 size=N/A time=00:15:42.94 bitrate=N/A speed=17.9x    frame=22879 fps=431 q=-0.0 size=N/A time=00:15:54.24 bitrate=N/A speed=  18x    frame=23124 fps=431 q=-0.0 size=N/A time=00:16:04.46 bitrate=N/A speed=  18x    frame=23394 fps=432 q=-0.0 size=N/A time=00:16:15.72 bitrate=N/A speed=  18x    frame=23660 fps=433 q=-0.0 size=N/A time=00:16:26.81 bitrate=N/A speed=  18x    frame=23871 fps=433 q=-0.0 size=N/A time=00:16:35.61 bitrate=N/A speed=  18x    frame=24112 fps=433 q=-0.0 size=N/A time=00:16:45.67 bitrate=N/A speed=18.1x    frame=24341 fps=433 q=-0.0 size=N/A time=00:16:55.22 bitrate=N/A speed=18.1x    frame=24593 fps=433 q=-0.0 size=N/A time=00:17:05.73 bitrate=N/A speed=18.1x    frame=24827 fps=434 q=-0.0 size=N/A time=00:17:15.49 bitrate=N/A speed=18.1x    frame=25095 fps=434 q=-0.0 size=N/A time=00:17:26.67 bitrate=N/A speed=18.1x    frame=25352 fps=435 q=-0.0 size=N/A time=00:17:37.38 bitrate=N/A speed=18.1x    frame=25557 fps=435 q=-0.0 size=N/A time=00:17:45.93 bitrate=N/A speed=18.1x    frame=25817 fps=435 q=-0.0 size=N/A time=00:17:56.78 bitrate=N/A speed=18.1x    frame=26052 fps=435 q=-0.0 size=N/A time=00:18:06.58 bitrate=N/A speed=18.2x    frame=26287 fps=436 q=-0.0 size=N/A time=00:18:16.38 bitrate=N/A speed=18.2x    frame=26503 fps=435 q=-0.0 size=N/A time=00:18:25.39 bitrate=N/A speed=18.2x    frame=26739 fps=436 q=-0.0 size=N/A time=00:18:35.23 bitrate=N/A speed=18.2x    frame=27006 fps=436 q=-0.0 size=N/A time=00:18:46.37 bitrate=N/A speed=18.2x    frame=27273 fps=437 q=-0.0 size=N/A time=00:18:57.51 bitrate=N/A speed=18.2x    frame=27551 fps=438 q=-0.0 size=N/A time=00:19:09.10 bitrate=N/A speed=18.3x    frame=27819 fps=438 q=-0.0 size=N/A time=00:19:20.28 bitrate=N/A speed=18.3x    frame=28066 fps=439 q=-0.0 size=N/A time=00:19:30.58 bitrate=N/A speed=18.3x    frame=28294 fps=439 q=-0.0 size=N/A time=00:19:40.09 bitrate=N/A speed=18.3x    frame=28534 fps=439 q=-0.0 size=N/A time=00:19:50.10 bitrate=N/A speed=18.3x    frame=28742 fps=439 q=-0.0 size=N/A time=00:19:58.78 bitrate=N/A speed=18.3x    frame=28964 fps=439 q=-0.0 size=N/A time=00:20:08.04 bitrate=N/A speed=18.3x    frame=29172 fps=438 q=-0.0 size=N/A time=00:20:16.71 bitrate=N/A speed=18.3x    frame=29385 fps=438 q=-0.0 size=N/A time=00:20:25.59 bitrate=N/A speed=18.3x    frame=29555 fps=437 q=-0.0 size=N/A time=00:20:32.68 bitrate=N/A speed=18.2x    frame=29724 fps=436 q=-0.0 size=N/A time=00:20:39.73 bitrate=N/A speed=18.2x    frame=29903 fps=436 q=-0.0 size=N/A time=00:20:47.20 bitrate=N/A speed=18.2x    frame=30143 fps=436 q=-0.0 size=N/A time=00:20:57.21 bitrate=N/A speed=18.2x    frame=30376 fps=436 q=-0.0 size=N/A time=00:21:06.93 bitrate=N/A speed=18.2x    frame=30613 fps=436 q=-0.0 size=N/A time=00:21:16.81 bitrate=N/A speed=18.2x    frame=30806 fps=436 q=-0.0 size=N/A time=00:21:24.86 bitrate=N/A speed=18.2x    frame=30990 fps=435 q=-0.0 size=N/A time=00:21:32.54 bitrate=N/A speed=18.2x    frame=31196 fps=435 q=-0.0 size=N/A time=00:21:41.13 bitrate=N/A speed=18.1x    frame=31399 fps=435 q=-0.0 size=N/A time=00:21:49.59 bitrate=N/A speed=18.1x    frame=31601 fps=434 q=-0.0 size=N/A time=00:21:58.02 bitrate=N/A speed=18.1x    frame=31829 fps=434 q=-0.0 size=N/A time=00:22:07.53 bitrate=N/A speed=18.1x    frame=32041 fps=434 q=-0.0 size=N/A time=00:22:16.37 bitrate=N/A speed=18.1x    frame=32195 fps=433 q=-0.0 size=N/A time=00:22:22.79 bitrate=N/A speed=18.1x    frame=32365 fps=433 q=-0.0 size=N/A time=00:22:29.89 bitrate=N/A speed=  18x    frame=32547 fps=432 q=-0.0 size=N/A time=00:22:37.48 bitrate=N/A speed=  18x    frame=32730 fps=432 q=-0.0 size=N/A time=00:22:45.11 bitrate=N/A speed=  18x    frame=32899 fps=431 q=-0.0 size=N/A time=00:22:52.16 bitrate=N/A speed=  18x    frame=33029 fps=430 q=-0.0 size=N/A time=00:22:57.58 bitrate=N/A speed=17.9x    frame=33159 fps=428 q=-0.0 size=N/A time=00:23:03.00 bitrate=N/A speed=17.9x    frame=33290 fps=427 q=-0.0 size=N/A time=00:23:08.47 bitrate=N/A speed=17.8x    frame=33415 fps=426 q=-0.0 size=N/A time=00:23:13.68 bitrate=N/A speed=17.8x    frame=33589 fps=426 q=-0.0 size=N/A time=00:23:20.94 bitrate=N/A speed=17.7x    frame=33750 fps=425 q=-0.0 size=N/A time=00:23:27.65 bitrate=N/A speed=17.7x    frame=33862 fps=423 q=-0.0 size=N/A time=00:23:32.32 bitrate=N/A speed=17.7x    frame=33994 fps=422 q=-0.0 size=N/A time=00:23:37.83 bitrate=N/A speed=17.6x    frame=34129 fps=421 q=-0.0 size=N/A time=00:23:43.46 bitrate=N/A speed=17.6x    frame=34294 fps=421 q=-0.0 size=N/A time=00:23:50.34 bitrate=N/A speed=17.5x    frame=34475 fps=420 q=-0.0 size=N/A time=00:23:57.89 bitrate=N/A speed=17.5x    [Parsed_ssim_10 @ 000001ab4cb3c940] SSIM Y:0.992948 (21.516707) U:0.993148 (21.641900) V:0.993260 (21.713280) All:0.993033 (21.569628)
[out#0/null @ 000001ab4cab7dc0] video:14858KiB audio:270432KiB subtitle:0KiB other streams:0KiB global headers:0KiB muxing overhead: unknown
frame=34578 fps=420 q=-0.0 Lsize=N/A time=00:24:02.19 bitrate=N/A speed=17.5x    
